<?xml version="1.0" encoding="UTF-8"?>
<svg version="1.1" xmlns="http://www.w3.org/2000/svg" width="500" height="158">
<path d="M0 0 C165 0 330 0 500 0 C500 52.14 500 104.28 500 158 C335 158 170 158 0 158 C0 105.86 0 53.72 0 0 Z " fill="#FEFEFE" transform="translate(0,0)"/>
<path d="M0 0 C9.91475927 -0.78137332 9.91475927 -0.78137332 14.125 2.25 C15.8205183 4.73676017 16.40331621 6.15053045 17 9 C17.61308014 9.00142502 18.22616028 9.00285004 18.8578186 9.00431824 C25.2499034 9.02403388 31.64103565 9.07834777 38.03271484 9.15258789 C40.41675986 9.17575755 42.80090709 9.19016115 45.18505859 9.19555664 C48.61620707 9.20485321 52.04575017 9.24586281 55.4765625 9.29296875 C56.53928375 9.2890361 57.602005 9.28510345 58.69692993 9.28105164 C66.98133398 9.44368794 66.98133398 9.44368794 70.71508789 12.22924805 C73 15 73 15 73.48364258 17.45947266 C73.35111084 18.3107373 73.2185791 19.16200195 73.08203125 20.0390625 C72.93588379 20.99973633 72.78973633 21.96041016 72.63916016 22.95019531 C71.54567516 28.16784795 70.21211388 33.2673837 68.6875 38.375 C68.24374023 39.95474609 68.24374023 39.95474609 67.79101562 41.56640625 C64.93168701 51.31159103 64.93168701 51.31159103 61 55 C57.33907494 56.22030835 53.9347389 56.17350301 50.12109375 56.2109375 C48.54491119 56.2389893 46.96873943 56.26765363 45.39257812 56.296875 C42.90828564 56.33825114 40.42419865 56.37514041 37.93969727 56.40136719 C35.54140748 56.42887649 33.14403373 56.47472455 30.74609375 56.5234375 C29.62732094 56.5283168 29.62732094 56.5283168 28.48594666 56.53329468 C26.16929752 56.55461657 26.16929752 56.55461657 23 57 C22.34 57.99 21.68 58.98 21 60 C22.57467041 60.03758423 22.57467041 60.03758423 24.18115234 60.07592773 C28.06881324 60.16996267 31.95629381 60.2701928 35.84375 60.37231445 C37.52762642 60.41567817 39.21154723 60.4573522 40.89550781 60.49731445 C43.31328724 60.55498234 45.73084295 60.6186865 48.1484375 60.68359375 C49.28132706 60.70866249 49.28132706 60.70866249 50.43710327 60.73423767 C55.77225659 60.88612829 55.77225659 60.88612829 58 62 C58.042721 63.66611905 58.04063832 65.33382885 58 67 C55.90957209 69.09042791 51.39697239 68.21276773 48.51171875 68.23828125 C47.22960258 68.25038887 47.22960258 68.25038887 45.92158508 68.26274109 C44.10830728 68.27659884 42.29500321 68.2873134 40.48168945 68.29516602 C37.70929368 68.3123648 34.93809452 68.35623274 32.16601562 68.40039062 C30.40625879 68.41051839 28.64649179 68.41903423 26.88671875 68.42578125 C26.05742355 68.44328934 25.22812836 68.46079742 24.373703 68.47883606 C18.62910855 68.45721424 18.62910855 68.45721424 15.50708008 66.18823242 C13.35393018 63.06192713 13 60.7793689 13 57 C13.66 56.21625 14.32 55.4325 15 54.625 C17.40342938 52.05620552 17.40342938 52.05620552 16.8125 48.28515625 C15.86969345 41.40544136 14.39957987 34.61081138 13 27.8125 C12.58794646 25.79503361 12.17703274 23.77734149 11.76708984 21.75944519 C11.39627624 19.93661981 11.0224484 18.11440837 10.6484375 16.29223633 C10.03982376 13.20219253 9.50035368 10.1092143 9 7 C7.081875 7.061875 7.081875 7.061875 5.125 7.125 C2.9453125 7.1953125 2.9453125 7.1953125 1 7 C0.34 6.34 -0.32 5.68 -1 5 C-0.625 2.375 -0.625 2.375 0 0 Z " fill="#FF7403" transform="translate(47,44)"/>
<path d="M0 0 C2.97 0 5.94 0 9 0 C21 25.31412104 21 25.31412104 21 29 C21.66 29 22.32 29 23 29 C23.16870605 28.46632813 23.33741211 27.93265625 23.51123047 27.3828125 C25.4301609 21.45553507 27.68458777 15.73005217 30.125 10 C30.48464844 9.14277344 30.84429687 8.28554687 31.21484375 7.40234375 C33.86811041 1.13188959 33.86811041 1.13188959 35 0 C37.97 0 40.94 0 44 0 C44 13.53 44 27.06 44 41 C41.36 41 38.72 41 36 41 C35.67 33.41 35.34 25.82 35 18 C34.04287109 20.36478516 34.04287109 20.36478516 33.06640625 22.77734375 C32.23190351 24.83078309 31.39726088 26.88416558 30.5625 28.9375 C30.14162109 29.97841797 29.72074219 31.01933594 29.28710938 32.09179688 C28.68286133 33.57583008 28.68286133 33.57583008 28.06640625 35.08984375 C27.69459229 36.00628662 27.32277832 36.92272949 26.93969727 37.86694336 C26 40 26 40 25 41 C23.00041636 41.04080783 20.99954746 41.04254356 19 41 C18.07990902 39.04327319 17.16413851 37.08451474 16.25 35.125 C15.73953125 34.03445312 15.2290625 32.94390625 14.703125 31.8203125 C12.67391156 27.26854474 10.85086362 22.62715904 9 18 C8.67 25.59 8.34 33.18 8 41 C5.36 41 2.72 41 0 41 C0 27.47 0 13.94 0 0 Z " fill="#1B1B1B" transform="translate(257,63)"/>
<path d="M0 0 C2.29501486 1.12805815 3.98392717 2.38714173 6 4 C6.33 3.01 6.66 2.02 7 1 C9.64 1 12.28 1 15 1 C15 11.56 15 22.12 15 33 C12.36 33 9.72 33 7 33 C6.67 32.01 6.34 31.02 6 30 C5.401875 30.495 4.80375 30.99 4.1875 31.5 C-0.51302435 33.71201146 -4.88989285 33.68493906 -10 33 C-14.39894258 30.61723943 -16.42869506 27.71391481 -18 23 C-18.61613896 17.10159656 -18.86346739 11.8929862 -16.375 6.4375 C-11.43245808 1.36489119 -7.13617466 -1.47254398 0 0 Z " fill="#1B1B1B" transform="translate(236,71)"/>
<path d="M0 0 C2.56474978 1.1248052 4.65373122 2.43582082 7 4 C7 3.01 7 2.02 7 1 C9.64 1 12.28 1 15 1 C15 11.56 15 22.12 15 33 C12.36 33 9.72 33 7 33 C6.67 32.01 6.34 31.02 6 30 C5.44957031 30.48339844 4.89914062 30.96679688 4.33203125 31.46484375 C0.19536499 34.18797581 -4.24006286 33.83366131 -9 33 C-13.81363864 30.43955391 -16.3678696 27.17726944 -18 22 C-18.64009663 16.46986283 -18.73882473 11.5913148 -16.375 6.5 C-11.54504573 1.41583761 -7.1889223 -1.4350248 0 0 Z " fill="#1C1C1C" transform="translate(323,71)"/>
<path d="M0 0 C4.47501029 2.55714874 7.63153522 5.30495929 9.79296875 10.078125 C10.7437187 15.97079394 10.13329493 21.20054323 7.1015625 26.3828125 C3.95956002 30.45334705 0.82373414 31.78840983 -4.08203125 32.48828125 C-9.92720778 32.77323361 -14.36321481 32.49792403 -18.87109375 28.55078125 C-23.02711388 23.96943742 -23.77204139 19.53749509 -23.546875 13.5390625 C-22.88536725 8.748834 -21.06767465 5.7329636 -17.4765625 2.5390625 C-11.95056645 -1.40965324 -6.40103994 -2.67370872 0 0 Z " fill="#1E1E1E" transform="translate(174.20703125,71.921875)"/>
<path d="M0 0 C3.88842333 1.97373332 6.1396836 4.5332217 8.296875 8.1796875 C8.92578125 10.3515625 8.92578125 10.3515625 8.92578125 18.3515625 C1.00578125 18.3515625 -6.91421875 18.3515625 -15.07421875 18.3515625 C-14.41421875 20.3315625 -13.75421875 22.3115625 -13.07421875 24.3515625 C-11.64011507 24.60110255 -10.20161803 24.82548892 -8.76171875 25.0390625 C-7.96121094 25.16667969 -7.16070312 25.29429688 -6.3359375 25.42578125 C-3.42738762 25.33033661 -3.04659589 24.36503084 -1.07421875 22.3515625 C1.1875 22.05859375 1.1875 22.05859375 3.61328125 22.1640625 C4.42152344 22.19113281 5.22976563 22.21820313 6.0625 22.24609375 C6.67738281 22.28089844 7.29226563 22.31570312 7.92578125 22.3515625 C6.57295956 26.77897894 4.69279237 28.71465471 0.92578125 31.3515625 C-3.26279652 33.44585139 -8.51281001 32.76949262 -13.07421875 32.3515625 C-17.46849041 30.38983408 -20.15739213 27.80758163 -22.37890625 23.4765625 C-24.23749424 17.79638347 -24.0020832 12.24165674 -21.38671875 6.9140625 C-15.26041623 0.125457 -9.10917272 -2.84768865 0 0 Z " fill="#1D1D1D" transform="translate(418.07421875,71.6484375)"/>
<path d="M0 0 C2.64 0 5.28 0 8 0 C8.33 7.59 8.66 15.18 9 23 C10.464375 21.205625 11.92875 19.41125 13.4375 17.5625 C17.875 12.125 17.875 12.125 19 11 C20.68608966 10.92794489 22.37500659 10.91613932 24.0625 10.9375 C24.98160156 10.94652344 25.90070313 10.95554687 26.84765625 10.96484375 C27.55792969 10.97644531 28.26820313 10.98804687 29 11 C25.59008792 16.54110713 21.38579957 21.20968493 17 26 C18.65474289 30.11692057 21.61787151 33.02390924 24.625 36.1875 C30 41.87828125 30 41.87828125 30 43 C26.13136549 43.71587816 22.84707134 43.91244641 19 43 C15.31125178 39.79078905 12.53678253 36.17159794 10 32 C10 31.34 10 30.68 10 30 C9.34 30 8.68 30 8 30 C8 34.29 8 38.58 8 43 C5.36 43 2.72 43 0 43 C0 28.81 0 14.62 0 0 Z " fill="#1F1F1F" transform="translate(365,61)"/>
<path d="M0 0 C2.64 0 5.28 0 8 0 C8.33 7.26 8.66 14.52 9 22 C10.258125 20.185 11.51625 18.37 12.8125 16.5 C17.0523499 11.22719304 17.0523499 11.22719304 21.046875 10.26953125 C23.77405892 10.30839009 26.31996187 10.50406771 29 11 C26.09825292 15.05421401 23.28486179 18.84870711 19.5625 22.1875 C16.70198143 24.66547545 16.70198143 24.66547545 17.09765625 27.42578125 C18.17227205 30.49146008 19.48235625 31.82646282 21.875 34 C24.83680326 36.80256653 27.15497601 39.30995203 29 43 C25.51371949 43.57866541 22.47080252 43.73951758 19 43 C14.81299056 39.65314706 11.95148635 35.42722952 9 31 C8.67 34.96 8.34 38.92 8 43 C5.36 43 2.72 43 0 43 C0 28.81 0 14.62 0 0 Z " fill="#1B1B1B" transform="translate(188,61)"/>
<path d="M0 0 C2.97 0 5.94 0 9 0 C9 11.22 9 22.44 9 34 C13.29 34 17.58 34 22 34 C22 36.31 22 38.62 22 41 C14.74 41 7.48 41 0 41 C0 27.47 0 13.94 0 0 Z " fill="#2C2C2C" transform="translate(128,63)"/>
<path d="M0 0 C2.64 0 5.28 0 8 0 C8 2.64 8 5.28 8 8 C10.31 8 12.62 8 15 8 C15 9.98 15 11.96 15 14 C12.69 14 10.38 14 8 14 C8.33 19.94 8.66 25.88 9 32 C11.31 32.33 13.62 32.66 16 33 C16 35.31 16 37.62 16 40 C7.0247473 40.62739631 7.0247473 40.62739631 2.9375 38.125 C0.14843735 35.06602806 -0.12321338 33.46771384 -0.09765625 29.4296875 C-0.09282227 28.08583984 -0.09282227 28.08583984 -0.08789062 26.71484375 C-0.07951172 25.77769531 -0.07113281 24.84054688 -0.0625 23.875 C-0.05798828 22.93011719 -0.05347656 21.98523438 -0.04882812 21.01171875 C-0.03702357 18.67441613 -0.02055759 16.33723939 0 14 C-1.32 14 -2.64 14 -4 14 C-4 12.02 -4 10.04 -4 8 C-2.68 8 -1.36 8 0 8 C0 5.36 0 2.72 0 0 Z " fill="#1C1C1C" transform="translate(432,64)"/>
<path d="M0 0 C2.64 0 5.28 0 8 0 C8.33 0.99 8.66 1.98 9 3 C9.556875 2.505 10.11375 2.01 10.6875 1.5 C13.38162983 -0.24754367 14.85375007 -0.26218749 18 0 C18 2.64 18 5.28 18 8 C17.43410156 8.12117188 16.86820312 8.24234375 16.28515625 8.3671875 C15.55167969 8.53476563 14.81820313 8.70234375 14.0625 8.875 C12.96615234 9.11863281 12.96615234 9.11863281 11.84765625 9.3671875 C9.79299706 9.82961523 9.79299706 9.82961523 9 12 C8.84876169 13.5195764 8.75118307 15.04472502 8.68359375 16.5703125 C8.64169922 17.46621094 8.59980469 18.36210938 8.55664062 19.28515625 C8.51732422 20.22230469 8.47800781 21.15945312 8.4375 22.125 C8.39431641 23.06988281 8.35113281 24.01476562 8.30664062 24.98828125 C8.20040928 27.32537092 8.09836824 29.6625683 8 32 C5.36 32 2.72 32 0 32 C0 21.44 0 10.88 0 0 Z " fill="#191919" transform="translate(344,72)"/>
<path d="M0 0 C3.17030133 2.76385245 3.91484046 4.31872368 4.4375 8.5 C3.97918775 12.16649798 3.22769177 14.08686461 1 17 C-2.13871188 18.56935594 -4.53855822 18.35201103 -8 18 C-10.91368224 16.01621635 -12.63558769 14.58551319 -13.4453125 11.0625 C-13.66348199 7.22271696 -13.23217682 5.36374368 -11.125 2.0625 C-7.34085598 -1.61034566 -5.0691536 -1.2235888 0 0 Z " fill="#F7F7F7" transform="translate(326,79)"/>
<path d="M0 0 C4.05990199 1.35330066 5.33761335 2.37620857 7.375 6.125 C7.81647263 10.31899 7.84972874 13.6082802 5.375 17.125 C1.62452518 19.62531654 -0.18356266 19.66103554 -4.625 19.125 C-7.70358499 17.09444394 -9.270391 15.6105968 -10.140625 11.96484375 C-10.3814405 8.68646912 -10.32267092 6.21081179 -8.515625 3.3984375 C-5.75772863 0.74433293 -3.77980951 0.13033826 0 0 Z " fill="#F6F6F6" transform="translate(235.625,77.875)"/>
<path d="M0 0 C3.17030133 2.76385245 3.91484046 4.31872368 4.4375 8.5 C3.97918775 12.16649798 3.22769177 14.08686461 1 17 C-2.09173752 18.54586876 -4.59429552 18.29359521 -8 18 C-10.36497439 16.13291495 -11.66030715 14.67938569 -13 12 C-13.39447548 7.81855989 -13.45035186 5.69053952 -11.125 2.125 C-7.36988536 -1.63011464 -5.09635523 -1.23015471 0 0 Z " fill="#F5F5F5" transform="translate(172,79)"/>
<path d="M0 0 C3.6875 0.4375 3.6875 0.4375 6.625 2.8125 C8.6875 5.4375 8.6875 5.4375 8.6875 7.4375 C3.4075 7.4375 -1.8725 7.4375 -7.3125 7.4375 C-4.57943227 0.60483068 -4.57943227 0.60483068 0 0 Z " fill="#ECECEC" transform="translate(410.3125,77.5625)"/>
<path d="M0 0 C2.875 0.6875 2.875 0.6875 3.875 1.6875 C4.11029412 7.21691176 4.11029412 7.21691176 2.875 9.6875 C0.235 9.6875 -2.405 9.6875 -5.125 9.6875 C-6.51931504 6.89886993 -6.38160094 4.76671132 -6.125 1.6875 C-3.125 -0.3125 -3.125 -0.3125 0 0 Z " fill="#FF7606" transform="translate(101.125,114.3125)"/>
<path d="M0 0 C2 2 2 2 2.1875 5 C2 8 2 8 1 10 C-1.64 10 -4.28 10 -7 10 C-8.33359073 3.57451737 -8.33359073 3.57451737 -6.875 1.0625 C-4.403308 -0.33812547 -2.79844834 -0.35877543 0 0 Z " fill="#FF7606" transform="translate(70,114)"/>
</svg>
